# xmcd
#
# Track frame offsets:
#	150
#	10801
#	24794
#	40686
#	53439
#	70381
#	81719
#	95626
#	112172
#	124968
#
# Disc length: 1862 seconds
#
# Revision: 9
# Processed by: cddbd v1.5.2PL0 Copyright (c) Steve Scherf et al.
# Submitted via: EasyCDDAExtractor 16.0.6.1
#
DISCID=8107440a
DTITLE=Clint Black - C-100 Killin' Time 
DYEAR=1989
DGENRE=Country
TTITLE0=Straight From The Factory
TTITLE1=A Better Man
TTITLE2=Nobody's Home
TTITLE3=Walkin' Away
TTITLE4=You're Gonna Leave Me Again
TTITLE5=I'll Be Gone
TTITLE6=Nothing's News
TTITLE7=Winding Down
TTITLE8=Killin' Time
TTITLE9=Live and Learn
EXTD=
EXTT0=
EXTT1=
EXTT2=
EXTT3=
EXTT4=
EXTT5=
EXTT6=
EXTT7=
EXTT8=
EXTT9=
PLAYORDER=
